<?xml version="1.0" encoding="utf-8"?>
<!DOCTYPE svg PUBLIC "-//W3C//DTD SVG 20010904//EN" "http://www.w3.org/TR/2001/REC-SVG-20010904/DTD/svg10.dtd">
<svg version="1.0" xmlns="http://www.w3.org/2000/svg" width="21px" height="20px" viewBox="0 0 21 20" preserveAspectRatio="xMidYMid meet">
 <g fill="#ffffff" stroke="#ffffff" stroke-width="1">
  <path d="M0 10 l0 -10 10.5 0 10.5 0 0 10 0 10 -10.5 0 -10.5 0 0 -10z"/>
 </g>
 <g fill="#43b7cd">
  <path d="M5.1 18.6 c-5.9 -3.3 -6.7 -10.2 -1.7 -15.2 3.5 -3.5 8.3 -4.5 11.5 -2.5 1 0.7 0 0.9 -3.1 0.8 -3.7 -0.2 -5.2 0.3 -7.2 2.2 -6.8 6.4 0.1 17 9.1 14 4.4 -1.4 6.8 -6.4 5.2 -10.6 l-1 -2.8 -3.1 5 c-4.2 7 -4.3 7 -6.8 3.5 -2.6 -3.6 -1.9 -5.4 0.8 -2 l1.9 2.3 3.1 -5.2 c1.8 -2.8 3.6 -5.1 4 -5.1 1.1 0 3.2 4.6 3.2 7 0 7.6 -9 12.4 -15.9 8.6z"/>
 </g>
</svg>