<?xml version="1.0" encoding="utf-8"?>
<!DOCTYPE svg PUBLIC "-//W3C//DTD SVG 20010904//EN" "http://www.w3.org/TR/2001/REC-SVG-20010904/DTD/svg10.dtd">
<svg version="1.0" xmlns="http://www.w3.org/2000/svg" width="21px" height="20px" viewBox="0 0 21 20" preserveAspectRatio="xMidYMid meet">
 <g fill="#ff7777">
  <path d="M5.1 18.6 c-5.9 -3.3 -6.7 -10.2 -1.7 -15.2 3.5 -3.5 8.3 -4.5 11.6 -2.4 1.1 0.7 0.1 0.9 -3.3 0.8 -3.7 0 -5.4 0.5 -7.2 2.2 -3.4 3.2 -3.4 8.8 0 12 5.6 5.2 14.5 1.5 14.5 -6 0 -2 -0.3 -4 -0.6 -4.3 -0.4 -0.4 -2.2 1.8 -4.1 4.8 -1.9 3 -3.6 5.5 -3.8 5.5 -0.2 0 -1.3 -1.4 -2.5 -3.1 -2.6 -3.5 -1.9 -5.2 0.8 -1.9 l1.8 2.2 3.1 -5.1 c1.8 -2.8 3.6 -5.1 4.1 -5.1 1.1 0 3.2 4.5 3.2 7 0 7.6 -9 12.4 -15.9 8.6z"/>
 </g>
</svg>